X Lossless Decoder version 20110417 (131.0)

XLD extraction logfile from 2011-04-19 22:43:36 +0900

Tiger Fake Fur / 山羊王のテーマ

Used drive : MATSHITA DVD-R   UJ-868 (revision KB19)

Ripper mode             : CDParanoia III 10.2
Disable audio cache     : OK for the drive with a cache less than 2750KiB
Make use of C2 pointers : NO
Read offset correction  : 102
Max retry count         : 100
Gap status              : Analyzed, Appended

TOC of the extracted CD
     Track |   Start  |  Length  | Start sector | End sector 
    ---------------------------------------------------------
        1  | 00:00:00 | 04:29:28 |         0    |    20202   
        2  | 04:29:28 | 05:29:22 |     20203    |    44899   
        3  | 09:58:50 | 04:19:31 |     44900    |    64355   
        4  | 14:18:06 | 04:27:66 |     64356    |    84446   

AccurateRip Summary
    Track 01 : OK (confidence 2)
    Track 02 : OK (confidence 2)
    Track 03 : OK (confidence 2)
    Track 04 : OK (confidence 2)
        ->All tracks accurately ripped.

All Tracks
    Filename : /Users/m4c/Public/flac/山羊王のテーマ.flac
    CRC32 hash             : 2CF4D356
    CRC32 hash (skip zero) : CB189728
    Statistics
        Read error                           : 0
        Skipped (treated as error)           : 0
        Edge jitter error (maybe fixed)      : 0
        Atom jitter error (maybe fixed)      : 0
        Drift error (maybe fixed)            : 0
        Dropped bytes error (maybe fixed)    : 0
        Duplicated bytes error (maybe fixed) : 0

Track 01
    Pre-gap length : 00:02:00

    CRC32 hash             : 147EFC7D
    CRC32 hash (skip zero) : 0E57EC3D
    AccurateRip signature  : 76FEF22D
        ->Accurately ripped! (confidence 2)
    Statistics
        Read error                           : 0
        Skipped (treated as error)           : 0
        Edge jitter error (maybe fixed)      : 0
        Atom jitter error (maybe fixed)      : 0
        Drift error (maybe fixed)            : 0
        Dropped bytes error (maybe fixed)    : 0
        Duplicated bytes error (maybe fixed) : 0

Track 02
    Pre-gap length : 00:01:37

    CRC32 hash             : 27AF9D94
    CRC32 hash (skip zero) : 3B25503B
    AccurateRip signature  : 5A0940F6
        ->Accurately ripped! (confidence 2)
    Statistics
        Read error                           : 0
        Skipped (treated as error)           : 0
        Edge jitter error (maybe fixed)      : 0
        Atom jitter error (maybe fixed)      : 0
        Drift error (maybe fixed)            : 0
        Dropped bytes error (maybe fixed)    : 0
        Duplicated bytes error (maybe fixed) : 0

Track 03
    Pre-gap length : 00:02:35

    CRC32 hash             : 12D8D4D8
    CRC32 hash (skip zero) : 4C0E37F2
    AccurateRip signature  : 05EA9E17
        ->Accurately ripped! (confidence 2)
    Statistics
        Read error                           : 0
        Skipped (treated as error)           : 0
        Edge jitter error (maybe fixed)      : 0
        Atom jitter error (maybe fixed)      : 0
        Drift error (maybe fixed)            : 0
        Dropped bytes error (maybe fixed)    : 0
        Duplicated bytes error (maybe fixed) : 0

Track 04
    Pre-gap length : 00:02:22

    CRC32 hash             : 3AB5A19A
    CRC32 hash (skip zero) : 147B0B03
    AccurateRip signature  : 56EA2217
        ->Accurately ripped! (confidence 2)
    Statistics
        Read error                           : 0
        Skipped (treated as error)           : 0
        Edge jitter error (maybe fixed)      : 0
        Atom jitter error (maybe fixed)      : 0
        Drift error (maybe fixed)            : 0
        Dropped bytes error (maybe fixed)    : 0
        Duplicated bytes error (maybe fixed) : 0

No errors occurred

End of status report
